# xmcd
#
# Track frame offsets:
#	150
#	17486
#	38247
#	56890
#	79955
#	94317
#	117880
#	145931
#	179295
#
# Disc length: 2846 seconds
#
# Revision: 0
# Processed by: cddbd v1.5.1PL2 Copyright (c) Steve Scherf et al.
# Submitted via: EasyCDDAExtractor 9.0.0.1
#
DISCID=770b1c09
DTITLE=Giorgia - Natural Woman - Live in Rome 1995
DYEAR=1995
DGENRE=Blues
TTITLE0=Taking it to the street
TTITLE1=Ain't no sunshine
TTITLE2=Chain of fools
TTITLE3=A natural woman
TTITLE4=Love of my life
TTITLE5=You don't know what love is
TTITLE6=The wind cries Mary
TTITLE7=Man in the mirror
TTITLE8=Bridge over troubled water
EXTD=
EXTT0=
EXTT1=
EXTT2=
EXTT3=
EXTT4=
EXTT5=
EXTT6=
EXTT7=
EXTT8=
PLAYORDER=
